<svg xmlns="http://www.w3.org/2000/svg" width="138.141" height="166.413" viewBox="0 0 138.141 166.413"><defs><style>.a{fill:#332c54;}</style></defs><g transform="translate(-110 -284.381)"><g transform="translate(110 427.392)"><path class="a" d="M22.074,206.479c-1.243,0-2.409.007-3.575-.012-.11,0-.255-.143-.32-.256-1.832-3.145-3.676-6.281-5.462-9.452a1.288,1.288,0,0,0-1.422-.809,20.818,20.818,0,0,1-2.1.015v10.489H5.9V183.116a2.5,2.5,0,0,1,.257-.024c2.3.016,4.6,0,6.9.064a10.975,10.975,0,0,1,4.445.974,5.226,5.226,0,0,1,3.137,4.807,6.882,6.882,0,0,1-.6,3.5,5.668,5.668,0,0,1-3.474,2.8c-.361.124-.732.217-1.142.337ZM9.2,194.583c.5,0,.961,0,1.422,0a12.287,12.287,0,0,0,3.246-.269A3.89,3.89,0,0,0,16.729,192a7.345,7.345,0,0,0,.342-3.64,3.949,3.949,0,0,0-3.151-3.577,19.138,19.138,0,0,0-4.665-.258c-.016,0-.032.027-.05.044Z" transform="translate(41.137 -183.083)"/><path class="a" d="M310.972,182.981h3.274v10.608c.115-.088.183-.132.242-.186a53.647,53.647,0,0,0,8.533-10.086.7.7,0,0,1,.69-.361c1.013.02,2.027.007,3.04.008.1,0,.21.01.376.019a71.715,71.715,0,0,1-10.1,9.733l10.732,13.613c-.129.01-.219.022-.308.022-1.123,0-2.247,0-3.371.006a.509.509,0,0,1-.463-.232q-4.568-6.046-9.149-12.083c-.047-.061-.1-.118-.2-.237v12.53h-3.3Z" transform="translate(-238.61 -182.955)"/><path class="a" d="M-561.042,183.1c.105-.006.191-.016.277-.015,2.236.014,4.473,0,6.708.054a11.059,11.059,0,0,1,4.876,1.108,5.658,5.658,0,0,1,3.137,4.729,8.512,8.512,0,0,1-.413,4,5.949,5.949,0,0,1-3.717,3.509,11.725,11.725,0,0,1-3.636.728c-1.3.059-2.595.073-3.935.108v9.134h-3.3Zm3.3,12.748c.762,0,1.489.029,2.213-.008a15.729,15.729,0,0,0,2.291-.225,4.139,4.139,0,0,0,3.412-2.978,9.009,9.009,0,0,0,.17-4.276,4.258,4.258,0,0,0-3.585-3.644,21.3,21.3,0,0,0-4.44-.2c-.017,0-.034.022-.062.041Z" transform="translate(561.042 -183.076)"/><path class="a" d="M-265.052,182.972h.343q5.931,0,11.862-.007c.322,0,.412.089.4.4-.024.658-.007,1.317-.007,2.021l-9.284-1.1v9.175h8.093v1.368h-8.092v10.217l9.526-1.131v2.422h-12.84Z" transform="translate(289.655 -182.964)"/><path class="a" d="M745.6,182.96h2.814a3.445,3.445,0,0,0,.428,0c.226-.028.326.072.416.272a85.46,85.46,0,0,0,6.364,11.538c.059.092.123.18.217.315.287-.555.563-1.073.825-1.6A74.668,74.668,0,0,0,760.8,183.3a.416.416,0,0,1,.479-.351c.892.019,1.786.007,2.677.007h.378c-.3.6-.57,1.164-.85,1.719a113.989,113.989,0,0,1-6.715,11.54,1.1,1.1,0,0,0-.174.575c-.011,3.041-.008,6.082-.008,9.123v.411h-3.31v-.4c0-3.052,0-6.1-.007-9.156a1.073,1.073,0,0,0-.181-.571,96.173,96.173,0,0,1-7.411-13.032C745.658,183.124,745.64,183.073,745.6,182.96Z" transform="translate(-626.197 -182.952)"/><path class="a" d="M611.891,206.7V183.351h3.288v22.065l8.781-1.233V206.7Z" transform="translate(-513.478 -183.325)"/></g><g transform="translate(135.327 284.381)"><path d="M335.181,292.232c.057,1.117.158,2.178.158,3.237.01,20.518-.04,41.037.064,61.555.014,2.8-.635,3.956-3.66,4.27-5.212.54-10.361,1.706-15.8,2.655v19.3l-33.51,5.834a13.275,13.275,0,0,1-.527-2.486c-.037-7.8.022-15.6-.058-23.4-.021-2.078.662-2.878,2.816-3.179,7.342-1.03,14.647-2.328,22.19-3.56V327.738c-4.512,1.041-8.85,2.055-13.194,3.042-3.732.847-7.445,1.82-11.214,2.444-2.928.484-3.777,1.866-3.764,4.806.115,24.718.065,49.436.065,74.154v5.007c-1.319-.622-2.077-.9-2.755-1.31-7.788-4.719-15.62-9.371-23.286-14.281a5.905,5.905,0,0,1-2.418-4.18c-.154-20.877-.084-41.756-.139-62.634-.005-2.148.553-3.213,2.87-3.613,4.355-.751,8.613-2.058,12.967-2.813,3.12-.541,4.458-1.79,4.2-5.17a98.337,98.337,0,0,1,.021-12.948c.058-1.065,1.154-2.764,2.067-2.991,20.54-5.106,41.12-10.048,61.7-15.009A6.11,6.11,0,0,1,335.181,292.232ZM278.8,325.189l37.132-8.5v38.2a44.09,44.09,0,0,1,6.7-.99c3.354.021,4.15-1.473,4.117-4.621-.148-14.277-.06-28.556-.075-42.834,0-1.132-.142-2.263-.228-3.553-2.117.5-3.858.9-5.594,1.328-13.011,3.168-26.031,6.3-39.015,9.578-1.136.287-2.771,1.43-2.9,2.352A69.113,69.113,0,0,0,278.8,325.189ZM269.885,336.4c-3.146.667-5.8,1.268-8.474,1.781-1.8.346-2.5,1.22-2.493,3.167.075,17.278.027,34.556.091,51.834a3.734,3.734,0,0,0,1.084,2.747c3.032,2.032,6.234,3.808,9.793,5.926Zm21.293,42.241,15.59-2.722v-10.49c-2.627.452-4.971.837-7.308,1.258-9.314,1.678-9.314,1.682-8.68,11.163A4.418,4.418,0,0,0,291.178,378.644Z" transform="translate(-250.144 -292.205)"/></g></g></svg>